<svg width="48" height="48" viewBox="0 0 48 48" fill="none" xmlns="http://www.w3.org/2000/svg">
<path d="M43.1506 22.2819C42.5751 22.2861 42.005 22.3959 41.4678 22.6061L35.7275 17.8214C35.8687 17.2998 35.9692 16.7587 35.9692 16.1883C35.9692 12.81 33.3026 10.0947 29.9848 10.0947C26.667 10.0947 24.0003 12.81 24.0003 16.1883C24.0003 17.1536 24.2397 18.053 24.6275 18.8622L17.664 27.2421C17.3852 27.189 17.1025 27.1605 16.819 27.1568C16.3905 27.1568 15.9859 27.23 15.5934 27.3372L9.4581 21.09C9.56582 20.6927 9.63763 20.2808 9.63763 19.8445C9.63763 17.1438 7.50238 14.9696 4.85006 14.9696C2.19775 14.9696 0.0625 17.1438 0.0625 19.8445C0.0625 22.5452 2.19775 24.7194 4.85006 24.7194C5.27855 24.7194 5.6831 24.6463 6.07568 24.539L12.2109 30.7862C12.0959 31.1911 12.0355 31.6102 12.0314 32.0317C12.0314 34.7324 14.1667 36.9066 16.819 36.9066C19.4713 36.9066 21.6065 34.7324 21.6065 32.0317C21.6065 31.454 21.4916 30.9105 21.3121 30.3962L28.2852 22.0065C28.8286 22.1674 29.3911 22.2819 29.9848 22.2819C30.9295 22.2766 31.8593 22.0418 32.6969 21.597L38.4396 26.3817C38.3946 26.6377 38.369 26.8968 38.363 27.1568C38.363 29.8575 40.4983 32.0317 43.1506 32.0317C45.8029 32.0317 47.9381 29.8575 47.9381 27.1568C47.9381 24.4561 45.8029 22.2819 43.1506 22.2819Z" fill="#00A0C1"/>
</svg>
