<svg width="48" height="48" viewBox="0 0 48 48" fill="none" xmlns="http://www.w3.org/2000/svg">
<g clip-path="url(#clip0_993_648)">
<path d="M15.0637 33.9949C14.2527 33.1802 14.6755 33.4099 12.7192 32.8839C11.8316 32.6449 11.0513 32.1855 10.3457 31.6352L6.11121 42.0639C5.70147 43.0736 6.46681 44.1705 7.55134 44.1292L12.4691 43.9408L15.8515 47.5296C16.5981 48.3208 17.9085 48.0742 18.3183 47.0646L23.1763 35.1002C22.1645 35.6664 21.0417 35.9983 19.8807 35.9983C18.0607 35.9983 16.3508 35.2867 15.0637 33.9949ZM41.7272 42.0639L37.4927 31.6352C36.7871 32.1864 36.0068 32.6449 35.1192 32.8839C33.1527 33.4127 33.5839 33.1821 32.7747 33.9949C31.4876 35.2867 29.7768 35.9983 27.9568 35.9983C26.7957 35.9983 25.6729 35.6655 24.6612 35.1002L29.5192 47.0646C29.9289 48.0742 31.2403 48.3208 31.986 47.5296L35.3693 43.9408L40.2871 44.1292C41.3716 44.1705 42.1369 43.0727 41.7272 42.0639ZM30.5459 31.8733C31.972 30.4155 32.1353 30.5411 34.1663 29.9852C35.4627 29.6299 36.4763 28.5939 36.8235 27.2683C37.5216 24.6058 37.3405 24.9274 39.2455 22.9792C40.1947 22.0089 40.5652 20.5942 40.218 19.2686C39.5208 16.608 39.5199 16.9792 40.218 14.3158C40.5652 12.9902 40.1947 11.5755 39.2455 10.6052C37.3405 8.65706 37.5216 8.97769 36.8235 6.31613C36.4763 4.9905 35.4627 3.95456 34.1663 3.59925C31.5641 2.88581 31.8777 3.07238 29.9709 1.12331C29.0217 0.153002 27.6376 -0.226685 26.3412 0.128627C23.74 0.841127 24.1031 0.842064 21.4972 0.128627C20.2008 -0.226685 18.8167 0.152065 17.8675 1.12331C15.9625 3.07144 16.2761 2.88581 13.6731 3.59925C12.3767 3.95456 11.3631 4.9905 11.0159 6.31613C10.3187 8.97769 10.4988 8.65706 8.59387 10.6052C7.64467 11.5755 7.27321 12.9902 7.62134 14.3158C8.31854 16.9746 8.31947 16.6033 7.62134 19.2677C7.27414 20.5933 7.64467 22.008 8.59387 22.9792C10.4988 24.9274 10.3177 24.6058 11.0159 27.2683C11.3631 28.5939 12.3767 29.6299 13.6731 29.9852C15.7619 30.5571 15.9177 30.4671 17.2925 31.8733C18.5273 33.1361 20.4509 33.3621 21.9349 32.4189C22.5284 32.0405 23.2168 31.8396 23.9197 31.8396C24.6226 31.8396 25.311 32.0405 25.9044 32.4189C27.3875 33.3621 29.3111 33.1361 30.5459 31.8733ZM15.1141 16.4946C15.1141 11.523 19.0565 7.49269 23.9192 7.49269C28.7819 7.49269 32.7243 11.523 32.7243 16.4946C32.7243 21.4661 28.7819 25.4964 23.9192 25.4964C19.0565 25.4964 15.1141 21.4661 15.1141 16.4946Z" fill="#00A0C1"/>
</g>
<defs>
<clipPath id="clip0_993_648">
<rect width="35.84" height="48" fill="white" transform="translate(6)"/>
</clipPath>
</defs>
</svg>
