<svg width="48" height="48" viewBox="0 0 48 48" fill="none" xmlns="http://www.w3.org/2000/svg">
<g clip-path="url(#clip0_993_625)">
<path d="M23.8406 22.8025C28.1448 22.8025 31.4925 19.3071 31.4925 15.0173C31.4925 10.7276 27.9854 7.39111 23.6812 7.39111C19.377 7.39111 16.0293 10.8865 16.0293 15.0173C16.0293 19.3071 19.5364 22.8025 23.8406 22.8025ZM23.6812 10.5687C23.8406 10.5687 23.8406 10.5687 23.6812 10.5687C26.2318 10.5687 28.3042 12.6342 28.3042 15.1762C28.3042 17.7183 26.2318 19.6249 23.6812 19.6249C21.1306 19.6249 19.2176 17.5594 19.2176 15.1762C19.2176 12.6342 21.29 10.5687 23.6812 10.5687Z" fill="#00A0C1"/>
<path d="M47.4335 21.8487C44.4046 19.1477 40.4193 17.7178 36.2745 17.8767H34.9992C34.6804 19.1477 34.2021 20.2599 33.5645 21.2132C34.5209 21.0543 35.318 21.0543 36.2745 21.0543C39.3034 20.8954 42.3323 21.8487 44.7235 23.5964V35.0357H47.9118V22.3253L47.4335 21.8487Z" fill="#00A0C1"/>
<path d="M32.6088 7.70826C33.4058 5.8017 35.6376 4.84842 37.71 5.64282C39.623 6.43722 40.5795 8.66154 39.7824 10.727C39.1448 12.1569 37.71 13.1102 36.2753 13.1102C35.9565 13.1102 35.4782 13.1102 35.1594 12.9513C35.3188 13.7457 35.3188 14.5401 35.3188 15.1756V16.1289C35.6376 16.1289 35.9565 16.2878 36.2753 16.2878C40.2607 16.2878 43.449 13.1102 43.449 9.29706C43.449 5.32506 40.2607 2.14746 36.4347 2.14746C33.8841 2.14746 31.6523 3.4185 30.377 5.64282C31.174 6.11946 31.9711 6.75498 32.6088 7.70826Z" fill="#00A0C1"/>
<path d="M14.4352 21.3724C13.7975 20.4191 13.3193 19.3069 13.0005 18.0359H11.7252C7.58037 17.877 3.59501 19.3069 0.566134 21.849L0.0878906 22.3257V35.0361H3.27618V23.5967C5.82681 21.849 8.69628 20.8957 11.7252 21.0546C12.6816 21.0546 13.6381 21.2135 14.4352 21.3724Z" fill="#00A0C1"/>
<path d="M11.7246 16.1295C12.0435 16.1295 12.3623 16.1295 12.6811 15.9706V15.0174C12.6811 14.223 12.6811 13.4286 12.8405 12.793C12.5217 12.9519 12.0435 12.9519 11.7246 12.9519C9.65225 12.9519 7.89869 11.2042 7.89869 9.1388C7.89869 7.07336 9.65225 5.32568 11.7246 5.32568C13.3188 5.32568 14.7535 6.27896 15.3912 7.70888C16.0288 6.91448 16.9853 6.12008 17.7824 5.48456C15.71 2.14809 11.4058 1.03593 8.0581 3.10136C4.7104 5.1668 3.59449 9.45656 5.66688 12.793C6.9422 14.8585 9.174 16.1295 11.7246 16.1295Z" fill="#00A0C1"/>
<path d="M36.9128 31.3817L36.594 30.9051C33.4057 27.4097 28.9421 25.3443 24.1596 25.5032C19.3772 25.3443 14.7542 27.4097 11.5659 30.9051L11.2471 31.3817V43.4566C11.2471 44.8865 12.363 46.1576 13.9571 46.1576H34.3622C35.7969 46.1576 37.0722 44.8865 37.0722 43.4566V31.3817H36.9128ZM33.7245 42.98H14.4354V32.4939C16.986 29.9518 20.4931 28.6808 24.1596 28.6808C27.6668 28.5219 31.1739 29.9518 33.7245 32.4939V42.98Z" fill="#00A0C1"/>
</g>
<defs>
<clipPath id="clip0_993_625">
<rect width="48" height="44.2105" fill="white" transform="translate(0 2)"/>
</clipPath>
</defs>
</svg>
