<svg width="111" height="22" viewBox="0 0 111 22" fill="none" xmlns="http://www.w3.org/2000/svg">
<g clip-path="url(#clip0_964_7912)">
<path d="M20.6311 8.41256C20.5734 8.24274 20.4673 8.09353 20.3258 7.98335C20.1843 7.87316 20.0137 7.80681 19.8349 7.79251L14.6057 7.377L12.3429 2.36798C12.2709 2.20665 12.1536 2.06963 12.0054 1.97344C11.8572 1.87726 11.6843 1.82602 11.5076 1.82593C11.3309 1.82583 11.158 1.87687 11.0097 1.9729C10.8613 2.06892 10.744 2.20582 10.6717 2.36707L8.40891 7.377L3.17976 7.79251C3.00407 7.80642 2.8361 7.87066 2.69597 7.97754C2.55583 8.08442 2.44945 8.2294 2.38955 8.39516C2.32966 8.56091 2.31878 8.74041 2.35823 8.91218C2.39768 9.08395 2.48578 9.24072 2.61199 9.36373L6.4763 13.1308L5.10962 19.0488C5.06812 19.2279 5.08142 19.4154 5.14779 19.5869C5.21417 19.7584 5.33055 19.9059 5.48183 20.0105C5.63312 20.115 5.81233 20.1716 5.9962 20.173C6.18008 20.1744 6.36013 20.1205 6.51299 20.0183L11.5073 16.6888L16.5017 20.0183C16.6579 20.1221 16.8422 20.1755 17.0297 20.1713C17.2171 20.1672 17.3989 20.1058 17.5504 19.9953C17.702 19.8848 17.816 19.7306 17.8773 19.5533C17.9386 19.3761 17.9441 19.1843 17.8931 19.0039L16.2155 13.1336L20.3761 9.38941C20.6485 9.14359 20.7485 8.76019 20.6311 8.41256Z" fill="#F3CD03"/>
<path d="M42.6447 8.41256C42.5871 8.24274 42.481 8.09353 42.3395 7.98335C42.198 7.87316 42.0273 7.80681 41.8486 7.79251L36.6194 7.377L34.3566 2.36798C34.2845 2.20665 34.1673 2.06963 34.0191 1.97344C33.8709 1.87726 33.698 1.82602 33.5213 1.82593C33.3446 1.82583 33.1717 1.87687 33.0233 1.9729C32.875 2.06892 32.7576 2.20582 32.6854 2.36707L30.4226 7.377L25.1934 7.79251C25.0177 7.80642 24.8498 7.87066 24.7096 7.97754C24.5695 8.08442 24.4631 8.2294 24.4032 8.39516C24.3433 8.56091 24.3325 8.74041 24.3719 8.91218C24.4114 9.08395 24.4995 9.24072 24.6257 9.36373L28.49 13.1308L27.1233 19.0488C27.0818 19.2279 27.0951 19.4154 27.1615 19.5869C27.2278 19.7584 27.3442 19.9059 27.4955 20.0105C27.6468 20.115 27.826 20.1716 28.0099 20.173C28.1937 20.1744 28.3738 20.1205 28.5267 20.0183L33.521 16.6888L38.5153 20.0183C38.6716 20.1221 38.8558 20.1755 39.0433 20.1713C39.2308 20.1672 39.4126 20.1058 39.5641 19.9953C39.7156 19.8848 39.8297 19.7306 39.891 19.5533C39.9522 19.3761 39.9578 19.1843 39.9068 19.0039L38.2292 13.1336L42.3897 9.38941C42.6622 9.14359 42.7621 8.76019 42.6447 8.41256Z" fill="#F3CD03"/>
<path d="M64.6555 8.41256C64.5978 8.24274 64.4917 8.09353 64.3502 7.98335C64.2087 7.87316 64.0381 7.80681 63.8593 7.79251L58.6302 7.377L56.3673 2.36798C56.2953 2.20665 56.1781 2.06963 56.0298 1.97344C55.8816 1.87726 55.7087 1.82602 55.532 1.82593C55.3553 1.82583 55.1824 1.87687 55.0341 1.9729C54.8857 2.06892 54.7684 2.20582 54.6961 2.36707L52.4333 7.377L47.2042 7.79251C47.0285 7.80642 46.8605 7.87066 46.7204 7.97754C46.5802 8.08442 46.4739 8.2294 46.414 8.39516C46.3541 8.56091 46.3432 8.74041 46.3826 8.91218C46.4221 9.08395 46.5102 9.24072 46.6364 9.36373L50.5007 13.1308L49.134 19.0488C49.0925 19.2279 49.1058 19.4154 49.1722 19.5869C49.2386 19.7584 49.355 19.9059 49.5062 20.0105C49.6575 20.115 49.8367 20.1716 50.0206 20.173C50.2045 20.1744 50.3845 20.1205 50.5374 20.0183L55.5317 16.6888L60.5261 20.0183C60.6823 20.1221 60.8666 20.1755 61.0541 20.1713C61.2416 20.1672 61.4233 20.1058 61.5748 19.9953C61.7264 19.8848 61.8405 19.7306 61.9017 19.5533C61.963 19.3761 61.9685 19.1843 61.9175 19.0039L60.2399 13.1336L64.4005 9.38941C64.6729 9.14359 64.7729 8.76019 64.6555 8.41256Z" fill="#F3CD03"/>
<path d="M86.6721 8.41256C86.6144 8.24274 86.5083 8.09353 86.3668 7.98335C86.2253 7.87316 86.0547 7.80681 85.8759 7.79251L80.6468 7.377L78.3839 2.36798C78.3119 2.20665 78.1947 2.06963 78.0464 1.97344C77.8982 1.87726 77.7253 1.82602 77.5486 1.82593C77.3719 1.82583 77.199 1.87687 77.0507 1.9729C76.9023 2.06892 76.785 2.20582 76.7127 2.36707L74.4499 7.377L69.2208 7.79251C69.0451 7.80642 68.8771 7.87066 68.737 7.97754C68.5968 8.08442 68.4905 8.2294 68.4306 8.39516C68.3707 8.56091 68.3598 8.74041 68.3992 8.91218C68.4387 9.08395 68.5268 9.24072 68.653 9.36373L72.5173 13.1308L71.1506 19.0488C71.1091 19.2279 71.1224 19.4154 71.1888 19.5869C71.2552 19.7584 71.3716 19.9059 71.5228 20.0105C71.6741 20.115 71.8533 20.1716 72.0372 20.173C72.2211 20.1744 72.4011 20.1205 72.554 20.0183L77.5483 16.6888L82.5427 20.0183C82.6989 20.1221 82.8832 20.1755 83.0707 20.1713C83.2582 20.1672 83.4399 20.1058 83.5914 19.9953C83.743 19.8848 83.8571 19.7306 83.9183 19.5533C83.9796 19.3761 83.9851 19.1843 83.9341 19.0039L82.2565 13.1336L86.4171 9.38941C86.6895 9.14359 86.7895 8.76019 86.6721 8.41256Z" fill="#F3CD03"/>
<path d="M94.5319 13.1308L93.1652 19.0488C93.1229 19.228 93.1356 19.4158 93.2017 19.5877C93.2677 19.7596 93.3841 19.9075 93.5356 20.0122C93.687 20.1169 93.8666 20.1735 94.0507 20.1746C94.2348 20.1757 94.415 20.1212 94.5677 20.0183L99.562 16.6888L104.556 20.0183C104.713 20.1221 104.897 20.1755 105.084 20.1714C105.272 20.1673 105.454 20.1058 105.605 19.9953C105.757 19.8849 105.871 19.7306 105.932 19.5534C105.993 19.3761 105.999 19.1844 105.948 19.0039L104.27 13.1336L108.431 9.38944C108.564 9.26946 108.659 9.11304 108.704 8.93955C108.75 8.76605 108.743 8.58308 108.686 8.41327C108.628 8.24345 108.522 8.09424 108.38 7.98408C108.239 7.87392 108.068 7.80764 107.89 7.79345L102.66 7.37703L100.398 2.36801C100.325 2.20672 100.208 2.06976 100.06 1.97366C99.9116 1.87755 99.7387 1.82642 99.562 1.82642C99.3853 1.82642 99.2124 1.87755 99.0641 1.97366C98.9159 2.06976 98.7986 2.20672 98.7264 2.36801L96.4636 7.37703L91.2344 7.79254C91.0588 7.80645 90.8908 7.87069 90.7507 7.97757C90.6105 8.08445 90.5041 8.22943 90.4442 8.39518C90.3843 8.56094 90.3735 8.74044 90.4129 8.91221C90.4524 9.08398 90.5405 9.24074 90.6667 9.36376L94.5319 13.1308ZM97.1488 9.16288C97.3125 9.14998 97.4697 9.09328 97.604 8.99871C97.7383 8.90414 97.8446 8.77519 97.9119 8.62538L99.562 4.97387L101.212 8.62538C101.279 8.77519 101.386 8.90414 101.52 8.99871C101.654 9.09328 101.812 9.14998 101.975 9.16288L105.619 9.45181L102.618 12.1521C102.358 12.387 102.254 12.7484 102.349 13.0859L103.499 17.108L100.072 14.8231C99.9216 14.7222 99.7445 14.6683 99.5634 14.6683C99.3822 14.6683 99.2052 14.7222 99.0548 14.8231L95.4739 17.2107L96.437 13.0409C96.4723 12.8876 96.4676 12.7277 96.4232 12.5767C96.3789 12.4257 96.2965 12.2887 96.1838 12.1787L93.3973 9.4619L97.1488 9.16288Z" fill="#F3CD03"/>
</g>
<defs>
<clipPath id="clip0_964_7912">
<rect width="110.068" height="22" fill="white" transform="translate(0.5)"/>
</clipPath>
</defs>
</svg>
